<svg width="200" height="200" viewBox="0 0 200 200" fill="none" xmlns="http://www.w3.org/2000/svg">
<rect width="200" height="200" rx="20" fill="white"/>
<path d="M54.5729 57.5094C54.5729 43.9732 65.5182 33 79.0201 33H120.968C134.47 33 145.415 43.9732 145.415 57.5094C145.415 66.0806 141.027 73.6243 134.379 78.0049C141.027 82.3857 145.415 89.9292 145.415 98.5005C145.415 112.037 134.47 123.01 120.968 123.01H120.437C114.108 123.01 108.34 120.598 103.998 116.641V139.224C103.998 152.941 92.7666 164 79.1518 164C65.6837 164 54.5729 153.06 54.5729 139.49C54.5729 130.92 58.9611 123.376 65.6079 118.996C58.9611 114.615 54.5729 107.071 54.5729 98.5005C54.5729 89.9292 58.9615 82.3857 65.6088 78.0049C58.9615 73.6243 54.5729 66.0806 54.5729 57.5094ZM95.9902 82.0193H79.0201C69.9409 82.0193 62.5808 89.3983 62.5808 98.5005C62.5808 107.568 69.8841 114.925 78.9149 114.981C78.9499 114.981 78.9849 114.981 79.0201 114.981H95.9902V82.0193ZM103.998 98.5005C103.998 107.603 111.358 114.982 120.437 114.982H120.968C130.047 114.982 137.407 107.603 137.407 98.5005C137.407 89.3983 130.047 82.0193 120.968 82.0193H120.437C111.358 82.0193 103.998 89.3983 103.998 98.5005ZM79.0201 123.01C78.9849 123.01 78.9499 123.01 78.9149 123.01C69.8841 123.066 62.5808 130.423 62.5808 139.49C62.5808 148.559 70.0392 155.972 79.1518 155.972C88.4113 155.972 95.9902 148.44 95.9902 139.224V123.01H79.0201ZM79.0201 41.0283C69.9409 41.0283 62.5808 48.4072 62.5808 57.5094C62.5808 66.6117 69.9409 73.9905 79.0201 73.9905H95.9902V41.0283H79.0201ZM103.998 73.9905H120.968C130.047 73.9905 137.407 66.6117 137.407 57.5094C137.407 48.4072 130.047 41.0283 120.968 41.0283H103.998V73.9905Z" fill="#45260A"/>
</svg>
