<svg width="200" height="200" viewBox="0 0 200 200" fill="none" xmlns="http://www.w3.org/2000/svg">
<rect width="200" height="200" rx="20" fill="white"/>
<path d="M44.875 52C44.0444 52 43.3576 51.7356 42.8146 51.2067C42.2715 50.6778 42 50.0089 42 49.2V26.8C42 25.9911 42.2715 25.3222 42.8146 24.7933C43.3576 24.2644 44.0444 24 44.875 24C45.7056 24 46.3924 24.2644 46.9354 24.7933C47.4785 25.3222 47.75 25.9911 47.75 26.8V34.3833H60.6875V26.8C60.6875 25.9911 60.959 25.3222 61.5021 24.7933C62.0451 24.2644 62.7319 24 63.5625 24C64.3931 24 65.0799 24.2644 65.6229 24.7933C66.166 25.3222 66.4375 25.9911 66.4375 26.8V49.2C66.4375 50.0089 66.166 50.6778 65.6229 51.2067C65.0799 51.7356 64.3931 52 63.5625 52C62.7319 52 62.0451 51.7356 61.5021 51.2067C60.959 50.6778 60.6875 50.0089 60.6875 49.2V39.9833H47.75V49.2C47.75 50.0089 47.4785 50.6778 46.9354 51.2067C46.3924 51.7356 45.7056 52 44.875 52ZM82.7292 52C81.8986 52 81.2118 51.7356 80.6687 51.2067C80.1257 50.6778 79.8542 50.0089 79.8542 49.2V29.6H74.3437C73.5132 29.6 72.8264 29.3356 72.2833 28.8067C71.7403 28.2778 71.4687 27.6089 71.4687 26.8C71.4687 25.9911 71.7403 25.3222 72.2833 24.7933C72.8264 24.2644 73.5132 24 74.3437 24H91.1146C91.9451 24 92.6319 24.2644 93.175 24.7933C93.7181 25.3222 93.9896 25.9911 93.9896 26.8C93.9896 27.6089 93.7181 28.2778 93.175 28.8067C92.6319 29.3356 91.9451 29.6 91.1146 29.6H85.6042V49.2C85.6042 50.0089 85.3326 50.6778 84.7896 51.2067C84.2465 51.7356 83.5597 52 82.7292 52ZM141.667 52C140.648 52 139.795 51.6646 139.106 50.9938C138.417 50.3229 138.073 49.4917 138.073 48.5V26.8C138.073 25.9911 138.344 25.3222 138.887 24.7933C139.431 24.2644 140.117 24 140.948 24C141.778 24 142.465 24.2644 143.008 24.7933C143.551 25.3222 143.823 25.9911 143.823 26.8V46.4H154.125C154.956 46.4 155.642 46.6644 156.185 47.1933C156.728 47.7222 157 48.3911 157 49.2C157 50.0089 156.728 50.6778 156.185 51.2067C155.642 51.7356 154.956 52 154.125 52H141.667ZM101.896 52C101.065 52 100.378 51.7356 99.8354 51.2067C99.2924 50.6778 99.0208 50.0089 99.0208 49.2V27.9667C99.0208 26.8 99.4002 25.8472 100.159 25.1083C100.918 24.3694 101.896 24 103.094 24H127.052C128.25 24 129.228 24.3694 129.987 25.1083C130.746 25.8472 131.125 26.8 131.125 27.9667V49.2C131.125 50.0089 130.853 50.6778 130.31 51.2067C129.767 51.7356 129.081 52 128.25 52C127.419 52 126.733 51.7356 126.19 51.2067C125.647 50.6778 125.375 50.0089 125.375 49.2V29.6H117.948V44.3C117.948 45.1089 117.676 45.7778 117.133 46.3067C116.59 46.8356 115.903 47.1 115.073 47.1C114.242 47.1 113.556 46.8356 113.012 46.3067C112.469 45.7778 112.198 45.1089 112.198 44.3V29.6H104.771V49.2C104.771 50.0089 104.499 50.6778 103.956 51.2067C103.413 51.7356 102.726 52 101.896 52Z" fill="#45260A"/>
<path d="M92.1167 114C91.0019 114 90.0463 113.583 89.25 112.75C88.4537 111.917 88.0556 110.917 88.0556 109.75V107C88.0556 106.167 88.3343 105.458 88.8917 104.875C89.4491 104.292 90.1259 104 90.9222 104C91.7185 104 92.3954 104.292 92.9528 104.875C93.5102 105.458 93.7889 106.167 93.7889 107V108H106.211V101.375H91.5194C90.5639 101.375 89.7477 101.021 89.0708 100.312C88.394 99.6042 88.0556 98.75 88.0556 97.75V88.25C88.0556 87.0833 88.4537 86.0833 89.25 85.25C90.0463 84.4167 91.0019 84 92.1167 84H107.883C108.998 84 109.954 84.4167 110.75 85.25C111.546 86.0833 111.944 87.0833 111.944 88.25V91C111.944 91.8333 111.666 92.5417 111.108 93.125C110.551 93.7083 109.874 94 109.078 94C108.281 94 107.605 93.7083 107.047 93.125C106.49 92.5417 106.211 91.8333 106.211 91V90H93.7889V96.625H108.481C109.436 96.625 110.252 96.9792 110.929 97.6875C111.606 98.3958 111.944 99.25 111.944 100.25V109.75C111.944 110.917 111.546 111.917 110.75 112.75C109.954 113.583 108.998 114 107.883 114H92.1167ZM123.172 114C122.057 114 121.102 113.583 120.306 112.75C119.509 111.917 119.111 110.917 119.111 109.75V107C119.111 106.167 119.39 105.458 119.947 104.875C120.505 104.292 121.181 104 121.978 104C122.774 104 123.451 104.292 124.008 104.875C124.566 105.458 124.844 106.167 124.844 107V108H137.267V101.375H122.575C121.619 101.375 120.803 101.021 120.126 100.312C119.45 99.6042 119.111 98.75 119.111 97.75V88.25C119.111 87.0833 119.509 86.0833 120.306 85.25C121.102 84.4167 122.057 84 123.172 84H138.939C140.054 84 141.009 84.4167 141.806 85.25C142.602 86.0833 143 87.0833 143 88.25V91C143 91.8333 142.721 92.5417 142.164 93.125C141.606 93.7083 140.93 94 140.133 94C139.337 94 138.66 93.7083 138.103 93.125C137.545 92.5417 137.267 91.8333 137.267 91V90H124.844V96.625H139.536C140.492 96.625 141.308 96.9792 141.985 97.6875C142.662 98.3958 143 99.25 143 100.25V109.75C143 110.917 142.602 111.917 141.806 112.75C141.009 113.583 140.054 114 138.939 114H123.172ZM61.0611 114C59.8667 114 58.8912 113.604 58.1347 112.812C57.3782 112.021 57 111 57 109.75V88.25C57 87 57.3782 85.9792 58.1347 85.1875C58.8912 84.3958 59.8667 84 61.0611 84H76.8278C78.0222 84 78.9977 84.3958 79.7542 85.1875C80.5106 85.9792 80.8889 87 80.8889 88.25V91C80.8889 91.8333 80.6102 92.5417 80.0528 93.125C79.4954 93.7083 78.8185 94 78.0222 94C77.2259 94 76.5491 93.7083 75.9917 93.125C75.4343 92.5417 75.1556 91.8333 75.1556 91V90H62.7333V108H75.1556V107C75.1556 106.167 75.4343 105.458 75.9917 104.875C76.5491 104.292 77.2259 104 78.0222 104C78.8185 104 79.4954 104.292 80.0528 104.875C80.6102 105.458 80.8889 106.167 80.8889 107V109.75C80.8889 111 80.5106 112.021 79.7542 112.812C78.9977 113.604 78.0222 114 76.8278 114H61.0611Z" fill="#45260A"/>
<path d="M106.005 174C104.88 174 103.917 173.611 103.114 172.833C102.311 172.056 101.909 171.122 101.909 170.033V167.467C101.909 166.689 102.19 166.028 102.752 165.483C103.314 164.939 103.997 164.667 104.8 164.667C105.603 164.667 106.286 164.939 106.848 165.483C107.41 166.028 107.691 166.689 107.691 167.467V168.4H120.218V162.217H105.402C104.439 162.217 103.616 161.886 102.933 161.225C102.25 160.564 101.909 159.767 101.909 158.833V149.967C101.909 148.878 102.311 147.944 103.114 147.167C103.917 146.389 104.88 146 106.005 146H121.905C123.029 146 123.992 146.389 124.795 147.167C125.598 147.944 126 148.878 126 149.967V152.533C126 153.311 125.719 153.972 125.157 154.517C124.595 155.061 123.912 155.333 123.109 155.333C122.306 155.333 121.623 155.061 121.061 154.517C120.499 153.972 120.218 153.311 120.218 152.533V151.6H107.691V157.783H122.507C123.47 157.783 124.294 158.114 124.976 158.775C125.659 159.436 126 160.233 126 161.167V170.033C126 171.122 125.598 172.056 124.795 172.833C123.992 173.611 123.029 174 121.905 174H106.005ZM77.0955 174C75.8909 174 74.9072 173.631 74.1443 172.892C73.3814 172.153 73 171.2 73 170.033V165.133C73 164.356 73.2811 163.694 73.8432 163.15C74.4053 162.606 75.0879 162.333 75.8909 162.333C76.6939 162.333 77.3765 162.606 77.9386 163.15C78.5008 163.694 78.7818 164.356 78.7818 165.133V168.4H88.9V148.8C88.9 148.022 89.1811 147.361 89.7432 146.817C90.3053 146.272 90.9879 146 91.7909 146C92.5939 146 93.2765 146.272 93.8386 146.817C94.4008 147.361 94.6818 148.022 94.6818 148.8V170.033C94.6818 171.2 94.3004 172.153 93.5375 172.892C92.7746 173.631 91.7909 174 90.5864 174H77.0955Z" fill="#45260A"/>
</svg>
