<svg width="200" height="200" viewBox="0 0 200 200" fill="none" xmlns="http://www.w3.org/2000/svg">
<rect width="200" height="200" rx="20" fill="white"/>
<g clip-path="url(#clip0_17_6)">
<path d="M147.031 100.5C147.031 87.8939 142.024 75.8042 133.11 66.8903C124.196 57.9765 112.106 52.9688 99.5 52.9688C86.8939 52.9688 74.8042 57.9765 65.8903 66.8903C56.9765 75.8042 51.9688 87.8939 51.9688 100.5C51.9688 113.106 56.9765 125.196 65.8903 134.11C74.8042 143.024 86.8939 148.031 99.5 148.031C112.106 148.031 124.196 143.024 133.11 134.11C142.024 125.196 147.031 113.106 147.031 100.5ZM41 100.5C41 84.9848 47.1634 70.1051 58.1343 59.1343C69.1051 48.1634 83.9848 42 99.5 42C115.015 42 129.895 48.1634 140.866 59.1343C151.837 70.1051 158 84.9848 158 100.5C158 116.015 151.837 130.895 140.866 141.866C129.895 152.837 115.015 159 99.5 159C83.9848 159 69.1051 152.837 58.1343 141.866C47.1634 130.895 41 116.015 41 100.5ZM84.0295 75.6146C85.7662 74.6549 87.8686 74.6777 89.5824 75.7289L122.489 95.8383C124.111 96.8438 125.117 98.6033 125.117 100.523C125.117 102.442 124.111 104.202 122.489 105.207L89.5824 125.317C87.8914 126.345 85.7662 126.391 84.0295 125.431C82.2928 124.471 81.2188 122.643 81.2188 120.655V80.3906C81.2188 78.4025 82.2928 76.5744 84.0295 75.6146Z" fill="#45260A"/>
</g>
<defs>
<clipPath id="clip0_17_6">
<rect width="117" height="117" fill="white" transform="translate(41 42)"/>
</clipPath>
</defs>
</svg>
