<svg width="200" height="200" viewBox="0 0 200 200" fill="none" xmlns="http://www.w3.org/2000/svg">
<rect width="200" height="200" rx="20" fill="white"/>
<path d="M79.0469 59.5938C75.9557 59.5938 73.4688 62.0807 73.4688 65.1719V135.828C73.4688 137.78 73.1434 139.663 72.5158 141.406H142.266C145.357 141.406 147.844 138.919 147.844 135.828V65.1719C147.844 62.0807 145.357 59.5938 142.266 59.5938H79.0469ZM56.7344 152.562C47.484 152.562 40 145.079 40 135.828V67.0312C40 63.94 42.4869 61.4531 45.5781 61.4531C48.6693 61.4531 51.1562 63.94 51.1562 67.0312V135.828C51.1562 138.919 53.6432 141.406 56.7344 141.406C59.8256 141.406 62.3125 138.919 62.3125 135.828V65.1719C62.3125 55.9215 69.7965 48.4375 79.0469 48.4375H142.266C151.516 48.4375 159 55.9215 159 65.1719V135.828C159 145.079 151.516 152.562 142.266 152.562H56.7344ZM80.9062 72.6094C80.9062 69.5182 83.3932 67.0312 86.4844 67.0312H108.797C111.888 67.0312 114.375 69.5182 114.375 72.6094V91.2031C114.375 94.2943 111.888 96.7812 108.797 96.7812H86.4844C83.3932 96.7812 80.9062 94.2943 80.9062 91.2031V72.6094ZM127.391 67.0312H134.828C137.919 67.0312 140.406 69.5182 140.406 72.6094C140.406 75.7006 137.919 78.1875 134.828 78.1875H127.391C124.299 78.1875 121.812 75.7006 121.812 72.6094C121.812 69.5182 124.299 67.0312 127.391 67.0312ZM127.391 85.625H134.828C137.919 85.625 140.406 88.1119 140.406 91.2031C140.406 94.2943 137.919 96.7812 134.828 96.7812H127.391C124.299 96.7812 121.812 94.2943 121.812 91.2031C121.812 88.1119 124.299 85.625 127.391 85.625ZM86.4844 104.219H134.828C137.919 104.219 140.406 106.706 140.406 109.797C140.406 112.888 137.919 115.375 134.828 115.375H86.4844C83.3932 115.375 80.9062 112.888 80.9062 109.797C80.9062 106.706 83.3932 104.219 86.4844 104.219ZM86.4844 122.812H134.828C137.919 122.812 140.406 125.299 140.406 128.391C140.406 131.482 137.919 133.969 134.828 133.969H86.4844C83.3932 133.969 80.9062 131.482 80.9062 128.391C80.9062 125.299 83.3932 122.812 86.4844 122.812Z" fill="#45260A"/>
</svg>
